# Blender v2.72 (sub 0) OBJ File: 'Ghost.blend'
# www.blender.org
o Sphere
v -0.183750 2.440979 0.000000
v -0.361242 2.390478 0.000000
v -0.526432 2.308223 0.000000
v -0.673696 2.197014 0.000000
v -0.895163 1.903744 0.000000
v -0.961826 1.731668 0.000000
v -0.995734 1.550274 0.000000
v -0.995734 1.365737 0.000000
v -0.129930 2.440979 -0.129931
v -0.255436 2.390478 -0.255437
v -0.372244 2.308223 -0.372244
v -0.476375 2.197014 -0.476375
v -0.564283 2.060640 -0.564284
v -0.632976 1.903744 -0.632976
v -0.680113 1.731668 -0.680114
v -0.704090 1.550274 -0.704091
v -0.704090 1.365737 -0.704091
v -0.340056 1.731668 0.820970
v -0.282141 2.060640 0.681151
v -0.656545 1.817706 0.656545
v -0.730270 0.365737 0.730271
v -0.129930 2.440979 0.129931
v -0.255436 2.390478 0.255437
v -0.372244 2.308223 0.372244
v -0.476375 2.197014 0.476375
v -0.564283 2.060640 0.564284
v -0.632976 1.903744 0.632976
v -0.680113 1.731668 0.680114
v -0.704090 1.550274 0.704091
v -0.704090 1.365737 0.704091
v -0.598630 1.982192 0.598630
v -0.730270 0.365737 -0.730271
v -1.032758 0.365737 0.000000
v -0.798017 2.060640 0.000000
v -0.164136 1.817706 0.860508
v -0.492408 1.817706 0.724533
v -0.158244 1.903744 0.829617
v -0.149657 1.982192 0.784601
v -0.448972 1.982192 0.660620
v -0.474732 1.903744 0.698523
v -0.314829 1.866807 0.811040
v -0.278372 1.911707 0.803784
v -0.305607 1.911707 0.792503
v -0.336413 1.755280 0.825746
v -0.286608 2.038189 0.705504
v -0.185125 1.829270 0.859748
v -0.467433 1.829270 0.742812
v -0.180058 1.903261 0.833182
v -0.172674 1.970725 0.794469
v -0.430079 1.970725 0.687849
v -0.452231 1.903261 0.720444
v -0.300341 1.862744 0.818307
v -0.291113 1.915165 0.796027
v -0.272309 1.876454 0.824607
v -0.324618 1.876454 0.802940
v -0.271370 1.890164 0.819685
v -0.270001 1.902665 0.812511
v -0.317697 1.902665 0.792755
v -0.321801 1.890164 0.798795
v -0.284959 1.866807 0.823413
v -0.365135 0.625301 0.881515
v -0.881514 0.625301 0.365135
v -0.881514 0.625301 -0.365135
v -0.365135 0.625301 -0.881515
v 0.183750 2.440979 0.000000
v 0.361242 2.390478 0.000000
v 0.526432 2.308223 0.000000
v 0.673696 2.197014 0.000000
v 0.895163 1.903744 0.000000
v 0.961826 1.731668 0.000000
v 0.995734 1.550274 0.000000
v 0.995734 1.365737 0.000000
v 0.129930 2.440979 -0.129931
v 0.255436 2.390478 -0.255437
v 0.372244 2.308223 -0.372244
v 0.476375 2.197014 -0.476375
v 0.564283 2.060640 -0.564284
v 0.632976 1.903744 -0.632976
v 0.680113 1.731668 -0.680114
v 0.704090 1.550274 -0.704091
v 0.704090 1.365737 -0.704091
v 0.000000 2.440979 -0.183750
v 0.000000 2.390478 -0.361242
v 0.000000 2.308223 -0.526433
v 0.000000 2.197014 -0.673696
v 0.000000 2.060640 -0.798018
v 0.000000 1.903744 -0.895164
v 0.000000 1.731668 -0.961826
v 0.000000 1.550274 -0.995735
v 0.000000 1.365737 -0.995735
v 0.340056 1.731668 0.820970
v 0.282141 2.060640 0.681151
v 0.656545 1.817706 0.656545
v 0.000000 2.440979 0.183750
v 0.000000 2.390478 0.361242
v 0.000000 2.308223 0.526433
v 0.000000 2.197014 0.673696
v 0.000000 2.060640 0.798018
v 0.000000 1.903744 0.895164
v 0.000000 1.731668 0.961826
v 0.000000 1.550274 0.995735
v 0.000000 1.365737 0.995735
v 0.730270 0.365737 0.730271
v 0.000000 2.458005 0.000000
v 0.129930 2.440979 0.129931
v 0.255436 2.390478 0.255437
v 0.372244 2.308223 0.372244
v 0.476375 2.197014 0.476375
v 0.564283 2.060640 0.564284
v 0.632976 1.903744 0.632976
v 0.680113 1.731668 0.680114
v 0.704090 1.550274 0.704091
v 0.704090 1.365737 0.704091
v 0.000000 0.365737 1.032759
v 0.598630 1.982192 0.598630
v 0.000000 1.817706 0.928495
v 0.000000 1.982192 0.846591
v 0.000000 0.365737 -1.032759
v 0.730270 0.365737 -0.730271
v 1.032758 0.365737 0.000000
v 0.798017 2.060640 0.000000
v 0.164136 1.817706 0.860508
v 0.492408 1.817706 0.724533
v 0.158244 1.903744 0.829617
v 0.149657 1.982192 0.784601
v 0.448972 1.982192 0.660620
v 0.474732 1.903744 0.698523
v 0.314829 1.866807 0.811040
v 0.278372 1.911707 0.803784
v 0.305607 1.911707 0.792503
v 0.336413 1.755280 0.825746
v 0.286608 2.038189 0.705504
v 0.185125 1.829270 0.859748
v 0.467433 1.829270 0.742812
v 0.180058 1.903261 0.833182
v 0.172674 1.970725 0.794469
v 0.430079 1.970725 0.687849
v 0.452231 1.903261 0.720444
v 0.300341 1.862744 0.818307
v 0.291113 1.915165 0.796027
v 0.272309 1.876454 0.824607
v 0.324618 1.876454 0.802940
v 0.271370 1.890164 0.819685
v 0.270001 1.902665 0.812511
v 0.317697 1.902665 0.792755
v 0.321801 1.890164 0.798795
v 0.284959 1.866807 0.823413
v 0.365135 0.625301 0.881515
v 0.881514 0.625301 0.365135
v 0.881514 0.625301 -0.365135
v 0.365135 0.625301 -0.881515
vt 0.417573 0.331208
vt 0.300778 0.291524
vt 0.302421 0.250862
vt 0.332437 0.468543
vt 0.268512 0.446823
vt 0.279960 0.411835
vt 0.565083 0.490964
vt 0.557250 0.518719
vt 0.527893 0.529369
vt 0.423334 0.291945
vt 0.301245 0.212239
vt 0.405073 0.369774
vt 0.296372 0.332840
vt 0.299265 0.492081
vt 0.255399 0.477177
vt 0.179129 0.449629
vt 0.165574 0.415426
vt 0.512573 0.554294
vt 0.477252 0.560902
vt 0.133357 0.256170
vt 0.132180 0.217548
vt 0.144384 0.337613
vt 0.137471 0.296652
vt 0.153859 0.377659
vt 0.194064 0.479102
vt 0.289353 0.373404
vt 0.626647 0.111191
vt 0.560116 0.104623
vt 0.576094 0.067706
vt 0.594729 0.034468
vt 0.615388 0.006041
vt 0.675622 0.011987
vt 0.533005 0.224514
vt 0.538198 0.184385
vt 0.618386 0.192301
vt 0.693178 0.117758
vt 0.694889 0.138228
vt 0.682508 0.043133
vt 0.688427 0.078795
vt 0.631703 0.558712
vt 0.591136 0.553180
vt 0.583446 0.528582
vt 0.699036 0.240903
vt 0.697968 0.279371
vt 0.659284 0.155013
vt 0.696600 0.158697
vt 0.697587 0.179457
vt 0.386257 0.406330
vt 0.361767 0.439631
vt 0.550971 0.551690
vt 0.726425 0.000000
vt 0.756542 0.025664
vt 0.297925 0.000000
vt 0.362284 0.075631
vt 0.122575 0.005506
vt 0.211905 0.057078
vt 0.698575 0.200216
vt 0.833840 0.168300
vt 0.839070 0.207861
vt 0.805407 0.091278
vt 0.693829 0.490964
vt 0.609230 0.428357
vt 0.838002 0.246329
vt 0.822491 0.128993
vt 0.783172 0.056439
vt 0.839070 0.456694
vt 0.767952 0.419722
vt 0.659599 0.134744
vt 0.542768 0.164174
vt 0.547339 0.143963
vt 0.584654 0.147647
vt 0.553727 0.124293
vt 0.589018 0.127777
vt 0.581473 0.167995
vt 0.658882 0.175636
vt 0.946488 0.164555
vt 0.938454 0.082278
vt 1.000000 0.000000
vt 0.426925 0.797115
vt 0.423334 0.770669
vt 0.560456 0.822295
vt 0.448702 0.675289
vt 0.468244 0.641762
vt 0.543294 0.670018
vt 0.492372 0.609260
vt 0.520264 0.578892
vt 0.546460 0.588754
vt 0.076327 0.815292
vt 0.051593 0.815292
vt 0.000000 0.656636
vt 0.425858 0.740859
vt 0.116649 0.475319
vt 0.015176 0.304761
vt 0.038140 0.381296
vt 0.085615 0.448302
vt 0.446211 0.571289
vt 0.023315 0.343588
vt 0.059145 0.416601
vt 0.708939 0.651158
vt 0.675672 0.705281
vt 0.652378 0.672402
vt 0.671289 0.568099
vt 0.627398 0.639505
vt 0.601585 0.607712
vt 0.438238 0.168294
vt 0.446658 0.130080
vt 0.492428 0.157233
vt 0.703726 0.692443
vt 0.686081 0.721152
vt 0.708546 0.581020
vt 0.575816 0.578104
vt 0.437170 0.206762
vt 0.705304 0.751785
vt 0.696489 0.737023
vt 0.715147 0.706667
vt 0.434411 0.708701
vt 0.548179 0.751534
vt 0.543872 0.628650
vt 0.024734 0.656636
vt 0.152214 0.656636
vt 0.144181 0.738914
vt 0.014000 0.266139
vt 0.000000 0.055904
vt 0.062942 0.085030
vt 0.568881 0.850561
vt 0.714119 0.766547
vt 0.544746 0.711449
vt 0.531937 0.262981
vt 0.521625 0.473966
vt 0.473982 0.390703
vt 0.578465 0.872742
vt 0.727962 0.792848
vt 0.553476 0.788907
vt 0.737546 0.815029
vt 0.794310 0.940141
vt 0.698331 0.938870
vt 0.782716 0.625841
vt 0.763363 0.657327
vt 0.752464 0.645956
vt 0.771122 0.615601
vt 0.739018 0.635027
vt 0.756664 0.606318
vt 0.754214 0.701315
vt 0.724657 0.720299
vt 0.144181 0.574359
vt 0.205726 0.492081
vt 0.507371 0.511902
vt 0.422157 0.253323
vt 0.616583 0.510354
vt 0.423334 0.042611
vt 1.000000 0.329110
vt 0.938454 0.246833
vt 0.742206 0.597036
vt 0.205726 0.821191
vt 0.423334 0.415656
vt 0.629314 1.000000
vt 0.794310 0.636082
vt 0.652091 0.173186
vt 0.652436 0.155451
vt 0.588256 0.149115
vt 0.592008 0.132028
vt 0.624369 0.117764
vt 0.652706 0.138020
vt 0.585520 0.166615
vt 0.617265 0.187517
vt 0.612115 0.162748
vt 0.606740 0.155632
vt 0.618632 0.156806
vt 0.938454 0.465432
vt 0.839070 0.431351
vt 0.839070 0.034080
vt 0.305110 0.526162
vt 0.404494 0.492081
vt 0.404494 0.889352
vt 0.720519 0.702371
vt 0.728697 0.714094
vt 0.794310 0.507256
vt 0.799061 0.509158
vt 0.800930 0.526666
vt 0.800820 0.544271
vt 0.796355 0.548086
vt 0.710697 0.690139
vt 0.741048 0.640761
vt 0.715180 0.654634
vt 0.818338 0.490964
vt 0.819725 0.495148
vt 0.754116 0.697768
vt 0.747724 0.669177
vt 0.748003 0.677998
vt 0.741778 0.678851
vt 0.839070 0.896783
vt 0.839070 0.499512
vt 0.205726 0.526162
vt 0.305110 0.492081
vt 0.305110 0.889352
vt 0.613432 0.149823
vt 0.610104 0.150417
vt 0.305110 0.855272
vt 0.606233 0.158875
vt 0.608666 0.161456
vt 0.615710 0.162151
vt 0.618568 0.160092
vt 0.618682 0.153576
vt 0.616526 0.151050
vt 0.607435 0.152466
vt 0.938454 0.000000
vt 0.796483 0.527615
vt 0.740789 0.670006
vt 0.743001 0.667970
vt 0.739790 0.673195
vt 0.743294 0.681024
vt 0.745814 0.680293
vt 0.749336 0.674563
vt 0.745582 0.667436
vt 0.749461 0.670989
vt 0.938454 0.930864
vt 0.205726 0.855272
vt 0.739958 0.676585
vt 0.815896 0.520384
vt 0.816242 0.523628
vt 0.816222 0.526890
vt 0.819725 0.517788
vt 0.817527 0.518355
vn -0.910400 0.170200 -0.377100
vn -0.584700 0.774300 -0.242200
vn -0.271900 0.955700 -0.112600
vn -0.923900 0.000000 -0.382700
vn -0.869800 0.337000 -0.360300
vn -0.438300 0.880300 -0.181600
vn -0.242200 0.774300 -0.584700
vn -0.112600 0.955700 -0.271900
vn -0.382700 0.000000 -0.923900
vn -0.360300 0.337000 -0.869800
vn -0.292700 0.644200 -0.706600
vn -0.181600 0.880300 -0.438300
vn -0.377100 0.170200 -0.910400
vn -0.332200 0.496500 -0.801900
vn -0.292700 0.644200 0.706600
vn -0.181600 0.880300 0.438300
vn -0.377100 0.170200 0.910400
vn -0.332200 0.496500 0.801900
vn -0.242200 0.774300 0.584700
vn -0.112600 0.955700 0.271900
vn -0.382700 0.000000 0.923900
vn -0.360300 0.337000 0.869800
vn -0.801900 0.496500 -0.332200
vn -0.706600 0.644200 -0.292700
vn -0.092200 0.995000 -0.038200
vn -0.038200 0.995000 -0.092200
vn -0.038200 0.995000 0.092200
vn -0.438300 0.880300 0.181600
vn -0.914400 0.034500 -0.403300
vn -0.092200 0.995000 0.038200
vn -0.361400 0.034500 -0.931800
vn -0.910400 0.170200 0.377100
vn -0.801900 0.496500 0.332200
vn -0.584700 0.774300 0.242200
vn -0.271900 0.955700 0.112600
vn -0.403300 0.034500 0.914400
vn -0.923900 0.000000 0.382700
vn -0.869800 0.337000 0.360300
vn -0.706600 0.644200 0.292700
vn -0.931800 0.034500 0.361400
vn 0.910400 0.170200 -0.377100
vn 0.584700 0.774300 -0.242200
vn 0.271900 0.955700 -0.112600
vn 0.923900 0.000000 -0.382700
vn 0.869800 0.337000 -0.360300
vn 0.438300 0.880300 -0.181600
vn 0.242200 0.774300 -0.584700
vn 0.112600 0.955700 -0.271900
vn 0.382700 0.000000 -0.923900
vn 0.360300 0.337000 -0.869800
vn 0.292700 0.644200 -0.706600
vn 0.181600 0.880300 -0.438300
vn 0.377100 0.170200 -0.910400
vn 0.332200 0.496500 -0.801900
vn 0.292700 0.644200 0.706600
vn 0.181600 0.880300 0.438300
vn 0.377100 0.170200 0.910400
vn 0.332200 0.496500 0.801900
vn 0.242200 0.774300 0.584700
vn 0.112600 0.955700 0.271900
vn 0.382700 0.000000 0.923900
vn 0.360300 0.337000 0.869800
vn 0.801900 0.496500 -0.332200
vn 0.706600 0.644200 -0.292700
vn 0.092200 0.995000 -0.038200
vn 0.038200 0.995000 -0.092200
vn 0.038200 0.995000 0.092200
vn 0.438300 0.880300 0.181600
vn 0.931800 0.034500 -0.361400
vn 0.092200 0.995000 0.038200
vn 0.403300 0.034500 -0.914400
vn 0.910400 0.170200 0.377100
vn 0.801900 0.496500 0.332200
vn 0.584700 0.774300 0.242200
vn 0.271900 0.955700 0.112600
vn 0.361400 0.034500 0.931800
vn 0.923900 0.000000 0.382700
vn 0.869800 0.337000 0.360300
vn 0.706600 0.644200 0.292700
vn 0.914400 0.034500 0.403300
vn -0.931800 0.034500 -0.361400
vn -0.403300 0.034500 -0.914400
vn -0.922900 0.046100 -0.382300
vn -0.382300 0.046100 -0.922900
vn -0.361400 0.034500 0.931800
vn -0.382300 0.046100 0.922900
vn -0.914400 0.034500 0.403300
vn -0.922900 0.046100 0.382300
vn -0.864000 -0.503500 0.000000
vn 0.628700 -0.732700 0.260400
vn 0.922900 0.046100 -0.382300
vn 0.382300 0.046100 -0.922900
vn 0.914400 0.034500 -0.403300
vn 0.361400 0.034500 -0.931800
vn 0.382300 0.046100 0.922900
vn 0.403300 0.034500 0.914400
vn 0.922900 0.046100 0.382300
vn 0.931800 0.034500 0.361400
vn 0.000000 -1.000000 0.000000
vn -0.652800 0.338900 0.677500
vn 0.145500 0.325500 0.934300
vn 0.130900 0.482600 0.866000
vn -0.599100 0.499200 0.626000
vn -0.082700 0.740200 0.667200
vn -0.404300 0.708200 0.578800
vn -0.132700 -0.176800 0.975300
vn -0.564700 -0.079100 0.821500
vn -0.579400 -0.815000 0.000000
vn 0.579400 -0.815000 -0.000000
vn 0.652800 0.338900 0.677500
vn -0.145500 0.325500 0.934300
vn -0.130900 0.482600 0.866000
vn 0.599100 0.499200 0.626000
vn 0.082700 0.740200 0.667200
vn 0.404300 0.708200 0.578800
vn 0.132700 -0.176800 0.975300
vn 0.564700 -0.079100 0.821500
vn -0.359700 0.475600 0.802800
vn -0.340800 0.338300 0.877200
vn -0.337200 0.356200 0.871400
vn -0.379300 0.338300 0.861200
vn -0.356600 0.498800 0.790000
vn -0.313300 0.475600 0.822000
vn -0.377800 0.356200 0.854600
vn -0.306500 0.498800 0.810700
vn 0.359700 0.475600 0.802800
vn 0.313300 0.475600 0.822000
vn 0.379300 0.338300 0.861200
vn 0.377800 0.356200 0.854600
vn 0.337200 0.356200 0.871400
vn 0.306500 0.498800 0.810700
vn 0.340800 0.338300 0.877200
vn 0.356500 0.498800 0.790000
vn -0.458400 0.342100 0.820300
vn -0.185300 0.343300 0.920800
vn -0.196600 0.504100 0.841000
vn -0.407600 0.502300 0.762600
vn -0.261100 0.578300 0.772900
vn -0.382500 0.532400 0.755100
vn -0.258500 0.222600 0.940000
vn -0.395500 0.194900 0.897500
vn 0.458400 0.342100 0.820300
vn 0.185300 0.343300 0.920800
vn 0.196600 0.504100 0.841000
vn 0.407700 0.502300 0.762600
vn 0.237600 0.551700 0.799500
vn 0.319900 0.569100 0.757500
vn 0.352800 0.181900 0.917900
vn 0.437000 0.207300 0.875300
vn -0.407700 0.502300 0.762600
vn -0.237600 0.551700 0.799500
vn -0.280000 0.617400 0.735100
vn -0.352700 0.181900 0.917900
vn -0.319900 0.569100 0.757500
vn -0.357300 0.565200 0.743600
vn -0.437000 0.207300 0.875300
vn -0.287000 0.152200 0.945800
vn -0.494500 0.207000 0.844100
vn 0.407600 0.502300 0.762600
vn 0.261100 0.578300 0.772900
vn 0.357300 0.565200 0.743600
vn 0.280000 0.617400 0.735100
vn 0.287000 0.152200 0.945800
vn 0.382500 0.532400 0.755100
vn 0.494500 0.207000 0.844100
vn 0.258500 0.222600 0.940000
vn 0.395500 0.194900 0.897500
s off
f 6/1/1 15/2/1 16/3/1
f 3/4/2 11/5/2 12/6/2
f 2/7/3 1/8/3 9/9/3
f 7/10/4 16/3/4 17/11/4
f 5/12/5 14/13/5 15/2/5
f 3/4/6 2/14/6 10/15/6
f 11/5/7 84/16/7 85/17/7
f 9/9/8 82/18/8 83/19/8
f 16/3/9 89/20/9 90/21/9
f 14/13/10 87/22/10 88/23/10
f 12/6/11 85/17/11 86/24/11
f 10/15/12 83/25/12 84/16/12
f 15/2/13 88/23/13 89/20/13
f 14/13/14 13/26/14 86/24/14
f 19/27/15 98/28/15 97/29/15
f 96/30/16 95/31/16 23/32/16
f 101/33/17 100/34/17 18/35/17
f 19/27/18 26/36/18 31/37/18
f 96/30/19 24/38/19 25/39/19
f 95/40/20 94/41/20 22/42/20
f 101/33/21 29/43/21 30/44/21
f 40/45/22 27/46/22 20/47/22
f 34/48/23 13/26/23 14/13/23
f 4/49/24 12/6/24 13/26/24
f 1/8/25 104/50/25 9/9/25
f 9/9/26 104/50/26 82/18/26
f 94/41/27 104/50/27 22/42/27
f 23/32/28 2/51/28 3/52/28
f 17/11/29 32/53/29 63/54/29
f 22/42/30 104/50/30 1/8/30
f 90/21/31 118/55/31 64/56/31
f 28/57/32 6/58/32 7/59/32
f 31/37/33 26/36/33 34/60/33
f 25/39/34 24/38/34 3/52/34
f 22/42/35 1/8/35 2/7/35
f 30/44/36 21/61/36 61/62/36
f 29/43/37 7/59/37 8/63/37
f 20/47/38 27/46/38 5/64/38
f 26/36/39 25/39/39 4/65/39
f 8/63/40 33/66/40 62/67/40
f 39/68/18 31/37/18 27/46/18
f 116/69/22 99/70/22 37/71/22
f 99/70/18 117/72/18 38/73/18
f 117/72/18 98/28/18 19/27/18
f 116/69/22 35/74/22 18/35/22
f 18/35/22 36/75/22 20/47/22
f 33/76/4 63/77/4 32/78/4
f 80/79/41 79/80/41 70/81/41
f 76/82/42 75/83/42 67/84/42
f 74/85/43 73/86/43 65/87/43
f 81/88/44 80/89/44 71/90/44
f 70/81/45 79/80/45 78/91/45
f 67/84/46 75/83/46 74/85/46
f 85/17/47 84/16/47 75/92/47
f 83/19/48 82/18/48 73/86/48
f 90/21/49 89/20/49 80/93/49
f 88/23/50 87/22/50 78/94/50
f 86/24/51 85/17/51 76/95/51
f 84/96/52 83/19/52 74/85/52
f 89/20/53 88/23/53 79/97/53
f 87/22/54 86/24/54 77/98/54
f 92/99/55 109/100/55 108/101/55
f 96/102/56 107/103/56 106/104/56
f 112/105/57 111/106/57 91/107/57
f 92/99/58 126/108/58 115/109/58
f 97/110/59 108/101/59 107/103/59
f 95/40/60 106/104/60 105/111/60
f 113/112/61 112/105/61 101/33/61
f 93/113/62 110/114/62 127/115/62
f 78/91/63 77/116/63 121/117/63
f 121/117/64 77/116/64 76/82/64
f 65/87/65 73/86/65 104/50/65
f 73/86/66 82/18/66 104/50/66
f 94/41/67 105/111/67 104/50/67
f 67/84/68 66/118/68 106/104/68
f 72/119/69 120/120/69 150/121/69
f 105/111/70 65/87/70 104/50/70
f 81/122/71 119/123/71 151/124/71
f 71/125/72 70/81/72 111/126/72
f 109/100/73 115/109/73 121/117/73
f 108/101/74 68/127/74 67/84/74
f 106/104/75 66/118/75 65/87/75
f 102/128/76 114/129/76 148/130/76
f 72/131/77 71/125/77 112/132/77
f 110/114/78 93/113/78 69/133/78
f 121/117/79 68/127/79 108/101/79
f 113/134/80 103/135/80 149/136/80
f 110/114/58 115/109/58 126/108/58
f 116/137/62 122/138/62 124/139/62
f 99/140/58 124/139/58 125/141/58
f 117/142/58 125/141/58 92/99/58
f 91/143/62 122/138/62 116/137/62
f 93/113/62 123/144/62 91/143/62
f 120/120/77 149/145/77 103/146/77
f 7/10/1 6/1/1 16/3/1
f 4/49/2 3/4/2 12/6/2
f 10/147/3 2/7/3 9/9/3
f 8/148/4 7/10/4 17/11/4
f 6/1/5 5/12/5 15/2/5
f 11/5/6 3/4/6 10/15/6
f 12/6/7 11/5/7 85/17/7
f 10/147/8 9/9/8 83/19/8
f 17/11/9 16/3/9 90/21/9
f 15/2/10 14/13/10 88/23/10
f 13/26/11 12/6/11 86/24/11
f 11/5/12 10/15/12 84/16/12
f 16/3/13 15/2/13 89/20/13
f 87/22/14 14/13/14 86/24/14
f 25/39/15 26/36/15 19/27/15
f 24/38/16 96/30/16 23/32/16
f 97/29/15 25/39/15 19/27/15
f 101/33/17 18/35/17 29/43/17
f 39/68/18 19/27/18 31/37/18
f 97/29/19 96/30/19 25/39/19
f 18/35/17 28/57/17 29/43/17
f 23/149/20 95/40/20 22/42/20
f 102/128/21 101/33/21 30/44/21
f 36/75/22 40/45/22 20/47/22
f 5/12/23 34/48/23 14/13/23
f 34/48/24 4/49/24 13/26/24
f 24/38/28 23/32/28 3/52/28
f 63/54/81 33/150/81 8/148/81
f 64/56/82 32/53/82 17/11/82
f 8/148/83 17/11/83 63/54/83
f 17/11/84 90/21/84 64/56/84
f 29/43/32 28/57/32 7/59/32
f 27/46/33 31/37/33 5/64/33
f 4/65/34 25/39/34 3/52/34
f 31/37/33 34/60/33 5/64/33
f 23/149/35 22/42/35 2/7/35
f 61/62/85 114/129/85 102/128/85
f 30/44/37 29/43/37 8/63/37
f 102/128/86 30/44/86 61/62/86
f 28/57/38 20/47/38 6/58/38
f 34/60/39 26/36/39 4/65/39
f 62/67/87 21/61/87 30/44/87
f 20/47/38 5/64/38 6/58/38
f 40/45/18 39/68/18 27/46/18
f 30/44/88 8/63/88 62/67/88
f 35/74/22 116/69/22 37/71/22
f 37/71/18 99/70/18 38/73/18
f 38/73/18 117/72/18 19/27/18
f 100/34/22 116/69/22 18/35/22
f 28/57/22 18/35/22 20/47/22
f 32/78/89 21/151/89 62/152/89
f 71/125/41 80/79/41 70/81/41
f 62/152/90 33/76/90 32/78/90
f 68/127/42 76/82/42 67/84/42
f 66/118/43 74/85/43 65/87/43
f 72/119/44 81/88/44 71/90/44
f 69/133/45 70/81/45 78/91/45
f 66/118/46 67/84/46 74/85/46
f 76/95/47 85/17/47 75/92/47
f 74/85/48 83/19/48 73/86/48
f 81/122/49 90/21/49 80/93/49
f 79/97/50 88/23/50 78/94/50
f 77/98/51 86/24/51 76/95/51
f 75/83/52 84/96/52 74/85/52
f 80/93/53 89/20/53 79/97/53
f 78/94/54 87/22/54 77/98/54
f 98/153/55 92/99/55 97/110/55
f 95/40/56 96/102/56 106/104/56
f 91/107/57 100/34/57 101/33/57
f 92/99/55 108/101/55 97/110/55
f 109/100/58 92/99/58 115/109/58
f 101/33/57 112/105/57 91/107/57
f 96/102/59 97/110/59 107/103/59
f 94/41/60 95/40/60 105/111/60
f 102/128/61 113/112/61 101/33/61
f 123/144/62 93/113/62 127/115/62
f 69/133/63 78/91/63 121/117/63
f 68/127/64 121/117/64 76/82/64
f 107/103/68 67/84/68 106/104/68
f 72/119/91 150/121/91 81/88/91
f 81/122/92 151/124/92 90/21/92
f 150/121/93 119/154/93 81/88/93
f 112/132/72 71/125/72 111/126/72
f 151/124/94 118/55/94 90/21/94
f 110/114/73 69/133/73 115/109/73
f 107/103/74 108/101/74 67/84/74
f 115/109/73 69/133/73 121/117/73
f 105/111/75 106/104/75 65/87/75
f 102/128/95 148/130/95 113/112/95
f 113/134/77 72/131/77 112/132/77
f 111/126/78 70/81/78 93/113/78
f 148/130/96 103/155/96 113/112/96
f 109/100/79 121/117/79 108/101/79
f 93/113/78 70/81/78 69/133/78
f 113/134/97 149/136/97 72/131/97
f 127/115/58 110/114/58 126/108/58
f 149/136/98 120/156/98 72/131/98
f 99/140/62 116/137/62 124/139/62
f 117/142/58 99/140/58 125/141/58
f 98/153/58 117/142/58 92/99/58
f 100/157/62 91/143/62 116/137/62
f 111/126/62 93/113/62 91/143/62
f 119/154/44 150/121/44 120/120/44
f 103/146/99 119/154/99 120/120/99
f 36/75/100 47/158/100 51/159/100
f 35/74/101 37/71/101 48/160/101
f 38/73/102 49/161/102 48/160/102
f 39/68/103 40/45/103 51/159/103
f 19/27/104 45/162/104 49/161/104
f 39/68/105 50/163/105 45/162/105
f 18/35/106 35/74/106 46/164/106
f 36/75/107 18/35/107 44/165/107
f 52/166/22 56/167/22 59/168/22
f 114/169/108 61/170/108 64/171/108
f 32/172/109 64/173/109 61/174/109
f 138/175/110 134/176/110 123/144/110
f 122/177/111 133/178/111 135/179/111
f 135/179/112 136/180/112 125/181/112
f 126/108/113 137/182/113 138/175/113
f 136/183/114 132/184/114 92/99/114
f 132/184/115 137/182/115 126/108/115
f 91/185/116 131/186/116 133/178/116
f 123/144/117 134/176/117 131/187/117
f 143/188/62 139/189/62 146/190/62
f 151/191/109 148/192/109 114/169/109
f 103/193/108 148/194/108 151/195/108
f 40/45/100 36/75/100 51/159/100
f 46/164/101 35/74/101 48/160/101
f 37/71/102 38/73/102 48/160/102
f 50/163/103 39/68/103 51/159/103
f 38/73/104 19/27/104 49/161/104
f 19/27/105 39/68/105 45/162/105
f 44/165/106 18/35/106 46/164/106
f 47/158/107 36/75/107 44/165/107
f 53/196/118 56/167/118 42/197/118
f 21/198/109 32/172/109 61/174/109
f 54/199/119 56/167/119 60/200/119
f 52/166/120 59/168/120 41/201/120
f 59/168/121 55/202/121 41/201/121
f 58/203/122 59/168/122 43/204/122
f 59/168/123 53/196/123 43/204/123
f 56/167/18 53/196/18 59/168/18
f 56/167/124 52/166/124 60/200/124
f 56/167/125 57/205/125 42/197/125
f 118/206/108 114/169/108 64/171/108
f 127/115/110 138/175/110 123/144/110
f 124/207/111 122/177/111 135/179/111
f 124/207/112 135/179/112 125/181/112
f 127/115/113 126/108/113 138/175/113
f 125/141/114 136/183/114 92/99/114
f 92/99/115 132/184/115 126/108/115
f 122/177/116 91/185/116 133/178/116
f 91/143/117 123/144/117 131/187/117
f 143/188/126 140/208/126 129/209/126
f 140/208/127 146/190/127 130/210/127
f 142/211/128 146/190/128 128/212/128
f 139/189/129 143/188/129 147/213/129
f 146/190/130 139/189/130 128/212/130
f 144/214/131 143/188/131 129/209/131
f 140/208/58 143/188/58 146/190/58
f 143/188/132 141/215/132 147/213/132
f 118/216/109 151/191/109 114/169/109
f 119/217/108 103/193/108 151/195/108
f 146/190/133 145/218/133 130/210/133
f 47/158/134 55/202/134 59/168/134
f 46/164/135 48/160/135 56/167/135
f 49/161/136 57/205/136 56/167/136
f 50/163/137 51/159/137 59/168/137
f 49/161/138 45/162/138 53/196/138
f 50/163/139 58/203/139 43/204/139
f 46/164/140 54/199/140 60/200/140
f 44/165/141 52/166/141 41/201/141
f 146/190/142 142/211/142 134/176/142
f 133/178/143 141/219/143 143/220/143
f 143/220/144 144/221/144 136/180/144
f 137/182/145 145/218/145 146/190/145
f 136/183/146 144/214/146 129/209/146
f 132/184/147 140/208/147 130/210/147
f 131/186/148 139/222/148 147/223/148
f 131/187/149 134/176/149 142/211/149
f 51/159/134 47/158/134 59/168/134
f 54/199/135 46/164/135 56/167/135
f 48/160/136 49/161/136 56/167/136
f 58/203/150 50/163/150 59/168/150
f 42/197/151 57/205/151 49/161/151
f 42/197/152 49/161/152 53/196/152
f 60/200/153 52/166/153 44/165/153
f 43/204/154 53/196/154 45/162/154
f 45/162/155 50/163/155 43/204/155
f 47/158/156 44/165/156 55/202/156
f 44/165/157 46/164/157 60/200/157
f 44/165/158 41/201/158 55/202/158
f 138/175/142 146/190/142 134/176/142
f 135/179/143 133/178/143 143/220/143
f 135/179/144 143/220/144 136/180/144
f 138/175/159 137/182/159 146/190/159
f 140/208/160 132/184/160 136/183/160
f 132/184/161 130/210/161 137/182/161
f 136/183/162 129/209/162 140/208/162
f 131/186/163 147/223/163 133/178/163
f 130/210/164 145/218/164 137/182/164
f 128/212/165 131/187/165 142/211/165
f 147/223/166 141/219/166 133/178/166
f 128/212/167 139/189/167 131/187/167
